<?xml version="1.0" encoding="UTF-8"?>
<!DOCTYPE svg PUBLIC "-//W3C//DTD SVG 1.1//EN" "http://www.w3.org/Graphics/SVG/1.1/DTD/svg11.dtd">
<!-- Creator: CorelDRAW X6 -->
<svg 
	id="dilogo"
	xml:space="preserve" version="1.1" 
	xmlns="http://www.w3.org/2000/svg" 
	xmlns:xlink="http://www.w3.org/1999/xlink"
	style="shape-rendering:geometricPrecision; text-rendering:geometricPrecision; 
		image-rendering:optimizeQuality; fill-rule:evenodd; clip-rule:evenodd"  
	width="105.833mm" 
	height="21.1666mm" 
	viewBox="0 0 10583 2117" >
<defs>
<style type="text/css">
<![CDATA[
.fil0 {fill:#2B2A29;fill-rule:nonzero}
]]>
</style>
</defs>
<g id="Слой_x0020_1">
<metadata id="CorelCorpID_0Corel-Layer"/>
<path class="fil0" d="M1628 1073c0,446 -289,669 -866,669 -50,0 -101,-2 -152,-6 -14,42 -37,63 -71,63 -19,0 -36,-5 -49,-16 -13,-11 -20,-24 -20,-39 0,9 8,-48 25,-171 16,-123 25,-251 25,-385 0,-190 -11,-372 -34,-546 -44,-9 -66,-34 -66,-74 0,-28 16,-50 47,-66l-1 -11c0,-1 0,-3 -1,-5 -1,-2 -1,-4 -1,-5 0,-41 24,-62 72,-62 39,0 63,18 71,54 101,-20 194,-30 280,-30 237,0 419,55 548,164 128,109 193,264 193,466zm-155 8c0,-161 -50,-284 -151,-368 -100,-85 -246,-127 -437,-127 -68,0 -154,10 -257,30 25,192 37,382 37,572 0,141 -9,277 -27,408 23,2 55,3 95,3 217,0 379,-24 484,-71 170,-77 255,-226 255,-446z"/>
<path id="1" class="fil0" d="M1983 496c0,69 -34,103 -101,103 -27,0 -50,-9 -69,-28 -19,-19 -28,-42 -28,-68 0,-29 10,-54 31,-74 20,-20 45,-31 75,-31 28,0 50,9 67,27 17,18 26,42 26,71zm-33 277c0,293 -10,509 -31,649 -8,56 -17,94 -28,113 -13,26 -34,38 -63,38 -19,0 -36,-6 -49,-19 -13,-13 -20,-28 -20,-46 0,2 4,-14 12,-50 9,-41 17,-87 23,-139 8,-74 12,-156 12,-247 0,-40 0,-82 -1,-126 -1,-44 -1,-68 -1,-72 0,-66 6,-111 17,-137 11,-28 33,-42 65,-42 44,0 66,26 66,78z"/>
<path id="2" class="fil0" d="M3383 1073c0,446 -289,669 -866,669 -50,0 -101,-2 -152,-6 -14,42 -37,63 -71,63 -19,0 -36,-5 -49,-16 -13,-11 -20,-24 -20,-39 0,9 8,-48 25,-171 16,-123 25,-251 25,-385 0,-190 -11,-372 -34,-546 -44,-9 -66,-34 -66,-74 0,-28 16,-50 47,-66l-1 -11c0,-1 0,-3 -1,-5 -1,-2 -1,-4 -1,-5 0,-41 24,-62 72,-62 39,0 63,18 71,54 101,-20 194,-30 280,-30 237,0 419,55 548,164 128,109 193,264 193,466zm-155 8c0,-161 -50,-284 -151,-368 -100,-85 -246,-127 -437,-127 -68,0 -154,10 -257,30 25,192 37,382 37,572 0,141 -9,277 -27,408 23,2 55,3 95,3 217,0 379,-24 484,-71 170,-77 255,-226 255,-446z"/>
<path id="3" class="fil0" d="M4069 873c0,19 -5,34 -17,47 -11,13 -25,19 -40,19 -12,0 -29,-9 -52,-26 -23,-17 -43,-26 -62,-26 -46,0 -83,20 -112,61 -29,41 -43,96 -43,165l0 95c0,107 -11,191 -34,254 -21,59 -48,88 -81,88 -44,0 -66,-22 -66,-66 0,-9 7,-41 20,-96 13,-55 20,-108 20,-157 0,-136 -19,-245 -58,-326 -1,-2 -14,-27 -40,-74 -13,-24 -20,-43 -20,-57 0,-16 7,-30 23,-44 15,-14 31,-20 49,-20 51,0 94,63 128,189 50,-97 124,-146 220,-146 48,0 88,11 118,34 30,23 45,51 45,85z"/>
<path id="4" class="fil0" d="M4403 496c0,69 -34,103 -101,103 -27,0 -50,-9 -69,-28 -19,-19 -28,-42 -28,-68 0,-29 10,-54 31,-74 20,-20 45,-31 75,-31 28,0 50,9 67,27 17,18 26,42 26,71zm-33 277c0,293 -10,509 -31,649 -8,56 -17,94 -28,113 -13,26 -34,38 -63,38 -19,0 -36,-6 -49,-19 -13,-13 -20,-28 -20,-46 0,2 4,-14 12,-50 9,-41 17,-87 23,-139 8,-74 12,-156 12,-247 0,-40 0,-82 -1,-126 -1,-44 -1,-68 -1,-72 0,-66 6,-111 17,-137 11,-28 33,-42 65,-42 44,0 66,26 66,78z"/>
<path id="5" class="fil0" d="M5250 686c0,40 -10,102 -31,186 -23,92 -40,157 -52,193 -34,107 -79,217 -135,330 -62,125 -114,188 -158,188 -28,0 -49,-27 -64,-81 -20,-75 -40,-150 -60,-225 -68,-218 -141,-397 -219,-538 -10,-17 -20,-34 -30,-51 -10,-17 -15,-32 -15,-44 0,-44 22,-66 66,-66 49,0 103,64 162,191 56,121 122,312 197,571 81,-159 143,-362 186,-609 11,-65 19,-103 22,-112 10,-26 29,-38 57,-38 48,0 73,35 73,105z"/>
<path id="6" class="fil0" d="M6103 978c0,50 -17,88 -52,112 -15,11 -65,25 -147,41 -110,23 -204,34 -282,34 -35,0 -78,-2 -128,-7 0,183 70,275 209,275 38,0 73,-11 104,-33 16,-11 43,-37 84,-78 14,-15 30,-22 46,-22 20,0 38,8 53,23 15,15 22,34 22,56 0,18 -7,35 -21,51 -83,91 -181,136 -293,136 -232,0 -347,-134 -347,-402 0,-138 37,-257 111,-358 84,-114 187,-171 311,-171 96,0 176,32 238,97 63,65 94,146 94,246zm-145 7c-3,-67 -21,-120 -53,-159 -32,-39 -73,-59 -121,-59 -63,0 -119,22 -167,67 -50,45 -86,109 -111,192 35,4 71,6 110,6 94,0 208,-16 341,-48z"/>
<path id="7" class="fil0" d="M7771 1487c0,47 -33,97 -100,150 -111,89 -253,134 -426,134 -186,0 -330,-56 -432,-168 -102,-112 -153,-270 -153,-474 0,-196 52,-357 155,-480 111,-133 260,-199 446,-199 158,0 288,41 389,123 38,30 57,59 57,85 0,19 -7,36 -23,51 -15,15 -32,22 -52,22 -13,0 -31,-8 -54,-26 -105,-75 -211,-113 -319,-113 -135,0 -243,48 -323,144 -80,96 -120,226 -120,391 0,331 144,497 431,497 164,0 281,-40 351,-119 16,-21 32,-42 48,-63 16,-18 33,-28 53,-28 21,0 38,7 52,21 14,14 21,31 21,52z"/>
<path id="8" class="fil0" d="M9280 1230c0,186 -8,339 -25,457 -10,69 -37,104 -81,104 -48,0 -73,-27 -73,-80 0,-2 3,-29 9,-81 7,-61 12,-122 17,-184 6,-92 9,-188 9,-289 0,-171 -14,-357 -43,-558 -117,116 -221,297 -310,543 -18,51 -36,103 -54,153 -18,38 -42,57 -73,57 -30,0 -52,-15 -66,-44 -5,-10 -19,-54 -42,-130 -60,-200 -172,-389 -337,-567 -54,174 -80,412 -80,714 0,44 2,97 5,161 4,64 5,106 5,127 0,74 -25,110 -74,110 -38,0 -63,-23 -74,-70 -7,-34 -11,-111 -11,-233 0,-328 24,-598 72,-811 17,-73 33,-124 50,-153 18,-31 42,-46 72,-46 32,0 68,22 109,65 85,91 150,169 197,235 74,105 135,221 183,349 90,-213 185,-384 285,-514 83,-115 149,-173 199,-173 21,0 37,9 47,28 9,15 18,44 28,87 37,156 55,402 55,741z"/>
<path id="9" class="fil0" d="M10336 530c0,14 -3,37 -8,68 -5,32 -8,55 -8,71l0 23c0,53 -3,88 -10,105 -10,25 -30,37 -62,37 -35,0 -58,-23 -71,-68 -6,-22 -10,-59 -11,-112 -66,-47 -136,-70 -208,-70 -93,0 -169,30 -229,90 -60,60 -90,137 -90,231 0,80 19,138 57,174 27,25 85,53 174,84 81,28 136,49 165,63 50,24 89,52 115,84 40,48 60,111 60,189 0,81 -31,146 -92,194 -62,47 -146,71 -253,71 -81,0 -145,-20 -194,-60l-1 147c-1,49 -24,73 -71,73 -49,0 -73,-33 -73,-97l0 -106c0,-140 4,-232 12,-276 11,-59 35,-89 72,-89 30,0 49,12 60,36 6,15 11,35 15,62 5,36 9,59 12,70 16,64 65,96 147,96 143,0 215,-43 215,-129 0,-42 -15,-76 -46,-103 -25,-22 -70,-45 -134,-68l-132 -47c-97,-36 -164,-79 -203,-130 -40,-53 -60,-128 -60,-225 0,-142 44,-257 133,-345 89,-89 203,-133 343,-133 80,0 157,22 228,67 13,-51 39,-76 77,-76 47,0 70,33 70,97z"/>
 </g>
</svg>
